# xmcd
#
# Track frame offsets:
# 150
# 15125
# 27031
# 38344
# 51265
# 63359
# 72684
# 79303
# 91427
# 103477
# 112345
# 125862
# 136107
# 148088
#
# Disc length: 2136 seconds
#
# Revision: 1
# Processed by: cddbd v1.5.2PL0 Copyright (c) Steve Scherf et al.
# Submitted via: CedeCatalogueitor 2.6.0.6 http://personales.ya.com/cdcatalogueitor
#
DISCID=ca08560e
DTITLE=Juanito Y Los Feos - Pesadilla Adulta
DYEAR=1900
DGENRE=
TTITLE0=El Final 
TTITLE1=500 Muertos
TTITLE2=La Bomba Del Islami
TTITLE3=Sigue Vivo
TTITLE4=Autolisonarse
TTITLE5=Circo Roma
TTITLE6=Mujer Rubia, Hombre Moreno
TTITLE7=Lobos
TTITLE8=Hostal Osona
TTITLE9=Tra, Mastica, Vomita
TTITLE10=Lunes Otra Vez
TTITLE11=Triste Pero Cierto
TTITLE12=Kurva
TTITLE13=Paleto
EXTD=
EXTT0=
EXTT1=
EXTT2=
EXTT3=
EXTT4=
EXTT5=
EXTT6=
EXTT7=
EXTT8=
EXTT9=
EXTT10=
EXTT11=
EXTT12=
EXTT13=
PLAYORDER=
